Hairline.ufo
<glyph name="D" format="1">
  <advance width="635"/>
  <unicode hex="0044"/>
  <outline>
    <contour>
      <point x="95" y="689" type="line"/>
      <point x="95" y="700" type="line"/>
      <point x="250" y="700" type="line" smooth="yes"/>
      <point x="454" y="700"/>
      <point x="585" y="559"/>
      <point x="585" y="350" type="curve"/>
      <point x="574" y="350" type="line"/>
      <point x="574" y="553"/>
      <point x="450" y="689"/>
      <point x="250" y="689" type="curve" smooth="yes"/>
    </contour>
    <contour>
      <point x="250" y="0" type="curve" smooth="yes"/>
      <point x="95" y="0" type="line"/>
      <point x="95" y="11" type="line"/>
      <point x="250" y="11" type="line" smooth="yes"/>
      <point x="450" y="11"/>
      <point x="574" y="146"/>
      <point x="574" y="350" type="curve"/>
      <point x="585" y="350" type="line"/>
      <point x="585" y="141"/>
      <point x="454" y="0"/>
    </contour>
    <contour>
      <point x="90" y="700" type="line"/>
      <point x="101" y="700" type="line"/>
      <point x="101" y="0" type="line"/>
      <point x="90" y="0" type="line"/>
    </contour>
  </outline>
</glyph>
<glyph name="F" format="1">
  <advance width="450"/>
  <unicode hex="0046"/>
  <outline>
    <contour>
      <point x="93" y="689" type="line"/>
      <point x="93" y="700" type="line"/>
      <point x="390" y="700" type="line"/>
      <point x="390" y="689" type="line"/>
    </contour>
    <contour>
      <point x="93" y="373" type="line"/>
      <point x="93" y="383" type="line"/>
      <point x="380" y="383" type="line"/>
      <point x="380" y="373" type="line"/>
    </contour>
    <contour>
      <point x="90" y="700" type="line"/>
      <point x="101" y="700" type="line"/>
      <point x="101" y="0" type="line"/>
      <point x="90" y="0" type="line"/>
    </contour>
  </outline>
</glyph>
<glyph name="P" format="1">
  <advance width="480"/>
  <unicode hex="0050"/>
  <outline>
    <contour>
      <point x="90" y="700" type="line"/>
      <point x="101" y="700" type="line"/>
      <point x="101" y="0" type="line"/>
      <point x="90" y="0" type="line"/>
    </contour>
    <contour>
      <point x="97" y="690" type="line"/>
      <point x="97" y="700" type="line"/>
      <point x="215" y="700" type="line" smooth="yes"/>
      <point x="340" y="700"/>
      <point x="430" y="626"/>
      <point x="430" y="497" type="curve" smooth="yes"/>
      <point x="430" y="368"/>
      <point x="340" y="294"/>
      <point x="215" y="294" type="curve" smooth="yes"/>
      <point x="97" y="294" type="line"/>
      <point x="97" y="304" type="line"/>
      <point x="215" y="304" type="line" smooth="yes"/>
      <point x="335" y="304"/>
      <point x="419" y="374"/>
      <point x="419" y="497" type="curve" smooth="yes"/>
      <point x="419" y="620"/>
      <point x="335" y="690"/>
      <point x="215" y="690" type="curve" smooth="yes"/>
    </contour>
  </outline>
</glyph>
<glyph name="w" format="1">
  <advance width="620"/>
  <unicode hex="0077"/>
  <outline>
    <contour>
      <point x="595" y="460" type="line"/>
      <point x="605" y="460" type="line"/>
      <point x="458" y="-15" type="line"/>
      <point x="458" y="18" type="line"/>
    </contour>
    <contour>
      <point x="305" y="441" type="line"/>
      <point x="305" y="475" type="line"/>
      <point x="458" y="18" type="line"/>
      <point x="458" y="-15" type="line"/>
    </contour>
    <contour>
      <point x="305" y="475" type="line"/>
      <point x="305" y="441" type="line"/>
      <point x="162" y="-15" type="line"/>
      <point x="162" y="18" type="line"/>
    </contour>
    <contour>
      <point x="15" y="460" type="line"/>
      <point x="25" y="460" type="line"/>
      <point x="162" y="18" type="line"/>
      <point x="162" y="-15" type="line"/>
    </contour>
  </outline>
</glyph>
<glyph name="z" format="1">
  <advance width="430"/>
  <unicode hex="007A"/>
  <outline>
    <contour>
      <point x="379" y="450" type="line"/>
      <point x="40" y="450" type="line"/>
      <point x="40" y="460" type="line"/>
      <point x="400" y="460" type="line"/>
      <point x="41" y="10" type="line"/>
      <point x="410" y="10" type="line"/>
      <point x="410" y="0" type="line"/>
      <point x="20" y="0" type="line"/>
    </contour>
  </outline>
</glyph>
<glyph name="sterling" format="1">
  <advance width="580"/>
  <unicode hex="00A3"/>
  <outline>
    <contour>
      <point x="87" y="305" type="line"/>
      <point x="397" y="305" type="line"/>
      <point x="397" y="295" type="line"/>
      <point x="87" y="295" type="line"/>
    </contour>
    <contour>
      <point x="481" y="498" type="line"/>
      <point x="478" y="577"/>
      <point x="432" y="700"/>
      <point x="311" y="700" type="curve" smooth="yes"/>
      <point x="208" y="700"/>
      <point x="146" y="619"/>
      <point x="146" y="538" type="curve" smooth="yes"/>
      <point x="146" y="415"/>
      <point x="268" y="371"/>
      <point x="268" y="264" type="curve" smooth="yes"/>
      <point x="268" y="158"/>
      <point x="132" y="47"/>
      <point x="108" y="0" type="curve"/>
      <point x="104" y="10" type="line"/>
      <point x="497" y="10" type="line"/>
      <point x="497" y="0" type="line"/>
      <point x="94" y="0" type="line"/>
      <point x="172" y="102"/>
      <point x="258" y="176"/>
      <point x="258" y="264" type="curve" smooth="yes"/>
      <point x="258" y="366"/>
      <point x="136" y="412"/>
      <point x="136" y="538" type="curve" smooth="yes"/>
      <point x="136" y="627"/>
      <point x="202" y="710"/>
      <point x="311" y="710" type="curve" smooth="yes"/>
      <point x="444" y="710"/>
      <point x="486" y="578"/>
      <point x="491" y="498" type="curve"/>
    </contour>
  </outline>
</glyph>
<glyph name="yen" format="1">
  <advance width="565"/>
  <unicode hex="00A5"/>
  <outline>
    <contour>
      <point x="258" y="275" type="line"/>
      <point x="269" y="275" type="line"/>
      <point x="269" y="0" type="line"/>
      <point x="258" y="0" type="line"/>
    </contour>
    <contour>
      <point x="494" y="700" type="line"/>
      <point x="507" y="700" type="line"/>
      <point x="264" y="256" type="line"/>
      <point x="30" y="700" type="line"/>
      <point x="43" y="700" type="line"/>
      <point x="264" y="281" type="line"/>
    </contour>
    <contour>
      <point x="30" y="145" type="line"/>
      <point x="30" y="155" type="line"/>
      <point x="507" y="155" type="line"/>
      <point x="507" y="145" type="line"/>
    </contour>
    <contour>
      <point x="30" y="270" type="line"/>
      <point x="30" y="280" type="line"/>
      <point x="507" y="280" type="line"/>
      <point x="507" y="270" type="line"/>
    </contour>
  </outline>
</glyph>
<glyph name="guillemotright" format="1">
  <advance width="485"/>
  <unicode hex="00BB"/>
  <outline>
    <contour>
      <point x="435" y="255" type="line"/>
      <point x="445" y="255" type="line"/>
      <point x="237" y="20" type="line"/>
      <point x="230" y="27" type="line"/>
    </contour>
    <contour>
      <point x="445" y="255" type="line"/>
      <point x="435" y="255" type="line"/>
      <point x="230" y="483" type="line"/>
      <point x="237" y="490" type="line"/>
    </contour>
    <contour>
      <point x="275" y="255" type="line"/>
      <point x="285" y="255" type="line"/>
      <point x="77" y="20" type="line"/>
      <point x="70" y="27" type="line"/>
    </contour>
    <contour>
      <point x="285" y="255" type="line"/>
      <point x="275" y="255" type="line"/>
      <point x="70" y="483" type="line"/>
      <point x="77" y="490" type="line"/>
    </contour>
  </outline>
</glyph>
<glyph name="questiondown" format="1">
  <advance width="542"/>
  <unicode hex="00BF"/>
  <outline>
    <contour>
      <point x="328" y="699" type="curve" smooth="yes"/>
      <point x="328" y="692"/>
      <point x="323" y="688"/>
      <point x="317" y="688" type="curve" smooth="yes"/>
      <point x="311" y="688"/>
      <point x="306" y="692"/>
      <point x="306" y="699" type="curve" smooth="yes"/>
      <point x="306" y="706"/>
      <point x="311" y="710"/>
      <point x="317" y="710" type="curve" smooth="yes"/>
      <point x="323" y="710"/>
      <point x="328" y="706"/>
    </contour>
    <contour>
      <point x="320" y="355" type="line"/>
      <point x="308" y="355" type="line"/>
      <point x="307" y="530" type="line"/>
      <point x="315" y="530" type="line"/>
    </contour>
    <contour>
      <point x="90" y="180" type="curve" smooth="yes"/>
      <point x="90" y="79"/>
      <point x="158" y="0"/>
      <point x="278" y="0" type="curve" smooth="yes"/>
      <point x="370" y="0"/>
      <point x="424" y="44"/>
      <point x="468" y="113" type="curve"/>
      <point x="477" y="107" type="line"/>
      <point x="431" y="37"/>
      <point x="377" y="-10"/>
      <point x="278" y="-10" type="curve" smooth="yes"/>
      <point x="153" y="-10"/>
      <point x="80" y="71"/>
      <point x="80" y="180" type="curve" smooth="yes"/>
      <point x="80" y="279"/>
      <point x="182" y="363"/>
      <point x="312" y="363" type="curve"/>
      <point x="320" y="355" type="line"/>
      <point x="190" y="355"/>
      <point x="90" y="276"/>
    </contour>
  </outline>
</glyph>
<glyph name="Atilde" format="1">
  <advance width="600"/>
  <unicode hex="00C3"/>
  <outline>
    <contour>
      <point x="127" y="272" type="line"/>
      <point x="127" y="282" type="line"/>
      <point x="472" y="282" type="line"/>
      <point x="472" y="272" type="line"/>
    </contour>
    <contour>
      <point x="300" y="688" type="line"/>
      <point x="136" y="277" type="line"/>
      <point x="135" y="273" type="line"/>
      <point x="27" y="0" type="line"/>
      <point x="15" y="0" type="line"/>
      <point x="300" y="715" type="line"/>
      <point x="585" y="0" type="line"/>
      <point x="573" y="0" type="line"/>
      <point x="466" y="273" type="line"/>
      <point x="465" y="276" type="line"/>
    </contour>
    <contour>
      <point x="174" y="796" type="line"/>
      <point x="174" y="825"/>
      <point x="191" y="854"/>
      <point x="236" y="854" type="curve" smooth="yes"/>
      <point x="291" y="854"/>
      <point x="306" y="807"/>
      <point x="360" y="807" type="curve" smooth="yes"/>
      <point x="389" y="807"/>
      <point x="401" y="823"/>
      <point x="416" y="855" type="curve"/>
      <point x="426" y="852" type="line"/>
      <point x="410" y="815"/>
      <point x="390" y="799"/>
      <point x="360" y="799" type="curve" smooth="yes"/>
      <point x="305" y="799"/>
      <point x="283" y="846"/>
      <point x="238" y="846" type="curve" smooth="yes"/>
      <point x="197" y="846"/>
      <point x="184" y="820"/>
      <point x="184" y="795" type="curve"/>
    </contour>
  </outline>
</glyph>
<glyph name="Ntilde" format="1">
  <advance width="665"/>
  <unicode hex="00D1"/>
  <outline>
    <contour>
      <point x="61" y="678" type="line"/>
      <point x="50" y="715" type="line"/>
      <point x="584" y="17" type="line"/>
      <point x="595" y="-15" type="line"/>
    </contour>
    <contour>
      <point x="584" y="700" type="line"/>
      <point x="595" y="700" type="line"/>
      <point x="595" y="-15" type="line"/>
      <point x="584" y="17" type="line"/>
    </contour>
    <contour>
      <point x="50" y="715" type="line"/>
      <point x="61" y="678" type="line"/>
      <point x="61" y="0" type="line"/>
      <point x="50" y="0" type="line"/>
    </contour>
    <contour>
      <point x="214" y="776" type="line"/>
      <point x="214" y="805"/>
      <point x="231" y="834"/>
      <point x="276" y="834" type="curve" smooth="yes"/>
      <point x="331" y="834"/>
      <point x="346" y="787"/>
      <point x="400" y="787" type="curve" smooth="yes"/>
      <point x="429" y="787"/>
      <point x="441" y="803"/>
      <point x="456" y="835" type="curve"/>
      <point x="466" y="832" type="line"/>
      <point x="450" y="795"/>
      <point x="430" y="779"/>
      <point x="400" y="779" type="curve" smooth="yes"/>
      <point x="345" y="779"/>
      <point x="323" y="826"/>
      <point x="278" y="826" type="curve" smooth="yes"/>
      <point x="237" y="826"/>
      <point x="224" y="800"/>
      <point x="224" y="775" type="curve"/>
    </contour>
  </outline>
</glyph>
<glyph name="thorn" format="1">
  <advance width="541"/>
  <unicode hex="00FE"/>
  <outline>
    <contour>
      <point x="90" y="-220" type="line"/>
      <point x="80" y="-220" type="line"/>
      <point x="80" y="780" type="line"/>
      <point x="90" y="780" type="line"/>
    </contour>
    <contour>
      <point x="496" y="230" type="curve" smooth="yes"/>
      <point x="496" y="83"/>
      <point x="403" y="-10"/>
      <point x="283" y="-10" type="curve" smooth="yes"/>
      <point x="160" y="-10"/>
      <point x="85" y="111"/>
      <point x="85" y="230" type="curve" smooth="yes"/>
      <point x="85" y="349"/>
      <point x="160" y="470"/>
      <point x="283" y="470" type="curve" smooth="yes"/>
      <point x="403" y="470"/>
      <point x="496" y="377"/>
    </contour>
    <contour>
      <point x="486" y="230" type="curve" smooth="yes"/>
      <point x="486" y="371"/>
      <point x="396" y="460"/>
      <point x="280" y="460" type="curve" smooth="yes"/>
      <point x="171" y="460"/>
      <point x="90" y="346"/>
      <point x="90" y="230" type="curve" smooth="yes"/>
      <point x="90" y="114"/>
      <point x="171" y="0"/>
      <point x="280" y="0" type="curve" smooth="yes"/>
      <point x="396" y="0"/>
      <point x="486" y="89"/>
    </contour>
  </outline>
</glyph>
<glyph name="Amacron" format="1">
  <advance width="600"/>
  <unicode hex="0100"/>
  <outline>
    <contour>
      <point x="127" y="272" type="line"/>
      <point x="127" y="282" type="line"/>
      <point x="472" y="282" type="line"/>
      <point x="472" y="272" type="line"/>
    </contour>
    <contour>
      <point x="300" y="688" type="line"/>
      <point x="136" y="277" type="line"/>
      <point x="135" y="273" type="line"/>
      <point x="27" y="0" type="line"/>
      <point x="15" y="0" type="line"/>
      <point x="300" y="715" type="line"/>
      <point x="585" y="0" type="line"/>
      <point x="573" y="0" type="line"/>
      <point x="466" y="273" type="line"/>
      <point x="465" y="276" type="line"/>
    </contour>
    <contour>
      <point x="125" y="795" type="line"/>
      <point x="125" y="805" type="line"/>
      <point x="475" y="805" type="line"/>
      <point x="475" y="795" type="line"/>
    </contour>
  </outline>
</glyph>
<glyph name="Dcaron" format="1">
  <advance width="635"/>
  <unicode hex="010E"/>
  <outline>
    <contour>
      <point x="95" y="689" type="line"/>
      <point x="95" y="700" type="line"/>
      <point x="250" y="700" type="line" smooth="yes"/>
      <point x="454" y="700"/>
      <point x="585" y="559"/>
      <point x="585" y="350" type="curve"/>
      <point x="574" y="350" type="line"/>
      <point x="574" y="553"/>
      <point x="450" y="689"/>
      <point x="250" y="689" type="curve" smooth="yes"/>
    </contour>
    <contour>
      <point x="250" y="0" type="curve" smooth="yes"/>
      <point x="95" y="0" type="line"/>
      <point x="95" y="11" type="line"/>
      <point x="250" y="11" type="line" smooth="yes"/>
      <point x="450" y="11"/>
      <point x="574" y="146"/>
      <point x="574" y="350" type="curve"/>
      <point x="585" y="350" type="line"/>
      <point x="585" y="141"/>
      <point x="454" y="0"/>
    </contour>
    <contour>
      <point x="90" y="700" type="line"/>
      <point x="101" y="700" type="line"/>
      <point x="101" y="0" type="line"/>
      <point x="90" y="0" type="line"/>
    </contour>
    <contour>
      <point x="248" y="790" type="line"/>
      <point x="400" y="926" type="line"/>
      <point x="408" y="918" type="line"/>
      <point x="248" y="778" type="line"/>
      <point x="88" y="918" type="line"/>
      <point x="96" y="926" type="line"/>
    </contour>
  </outline>
</glyph>
<glyph name="ecaron" format="1">
  <advance width="522"/>
  <unicode hex="011B"/>
  <outline>
    <contour>
      <point x="52" y="228" type="line"/>
      <point x="52" y="238" type="line"/>
      <point x="471" y="238" type="line"/>
      <point x="475" y="228" type="line"/>
    </contour>
    <contour>
      <point x="466" y="253" type="line" smooth="yes"/>
      <point x="466" y="372"/>
      <point x="370" y="460"/>
      <point x="265" y="460" type="curve" smooth="yes"/>
      <point x="157" y="460"/>
      <point x="55" y="375"/>
      <point x="55" y="232" type="curve"/>
      <point x="55" y="232" type="line"/>
      <point x="55" y="100"/>
      <point x="141" y="0"/>
      <point x="260" y="0" type="curve" smooth="yes"/>
      <point x="378" y="0"/>
      <point x="431" y="64"/>
      <point x="461" y="113" type="curve"/>
      <point x="469" y="107" type="line"/>
      <point x="439" y="59"/>
      <point x="385" y="-10"/>
      <point x="260" y="-10" type="curve" smooth="yes"/>
      <point x="135" y="-10"/>
      <point x="45" y="93"/>
      <point x="45" y="232" type="curve" smooth="yes"/>
      <point x="45" y="259"/>
      <point x="48" y="284"/>
      <point x="55" y="308" type="curve" smooth="yes"/>
      <point x="82" y="403"/>
      <point x="162" y="470"/>
      <point x="265" y="470" type="curve" smooth="yes"/>
      <point x="375" y="470"/>
      <point x="477" y="379"/>
      <point x="477" y="254" type="curve" smooth="yes"/>
      <point x="477" y="246"/>
      <point x="476" y="236"/>
      <point x="475" y="228" type="curve"/>
      <point x="466" y="230" type="line"/>
    </contour>
    <contour>
      <point x="265" y="562" type="line"/>
      <point x="417" y="698" type="line"/>
      <point x="425" y="690" type="line"/>
      <point x="265" y="550" type="line"/>
      <point x="105" y="690" type="line"/>
      <point x="113" y="698" type="line"/>
    </contour>
  </outline>
</glyph>
<glyph name="imacron" format="1">
  <advance width="190"/>
  <unicode hex="012B"/>
  <outline>
    <contour>
      <point x="90" y="460" type="line"/>
      <point x="100" y="460" type="line"/>
      <point x="100" y="0" type="line"/>
      <point x="90" y="0" type="line"/>
    </contour>
    <contour>
      <point x="-45" y="595" type="line"/>
      <point x="-45" y="605" type="line"/>
      <point x="305" y="605" type="line"/>
      <point x="305" y="595" type="line"/>
    </contour>
  </outline>
</glyph>
<glyph name="dotlessi" format="1">
  <advance width="190"/>
  <unicode hex="0131"/>
  <outline>
    <contour>
      <point x="90" y="460" type="line"/>
      <point x="100" y="460" type="line"/>
      <point x="100" y="0" type="line"/>
      <point x="90" y="0" type="line"/>
    </contour>
  </outline>
</glyph>
<glyph name="Jcircumflex" format="1">
  <advance width="197"/>
  <unicode hex="0134"/>
  <outline>
    <contour>
      <point x="-127" y="-158" type="line"/>
      <point x="-103" y="-182"/>
      <point x="-63" y="-209"/>
      <point x="-17" y="-209" type="curve" smooth="yes"/>
      <point x="72" y="-209"/>
      <point x="96" y="-166"/>
      <point x="96" y="-50" type="curve" smooth="yes"/>
      <point x="96" y="700" type="line"/>
      <point x="107" y="700" type="line"/>
      <point x="107" y="-60" type="line" smooth="yes"/>
      <point x="107" y="-169"/>
      <point x="78" y="-220"/>
      <point x="-16" y="-220" type="curve" smooth="yes"/>
      <point x="-69" y="-220"/>
      <point x="-119" y="-185"/>
      <point x="-134" y="-165" type="curve"/>
    </contour>
    <contour>
      <point x="120" y="938" type="line"/>
      <point x="-33" y="803" type="line"/>
      <point x="-40" y="810" type="line"/>
      <point x="120" y="950" type="line"/>
      <point x="280" y="810" type="line"/>
      <point x="273" y="803" type="line"/>
    </contour>
  </outline>
</glyph>
<glyph name="uni0136" format="1">
  <advance width="454"/>
  <unicode hex="0136"/>
  <outline>
    <contour>
      <point x="85" y="700" type="line"/>
      <point x="96" y="700" type="line"/>
      <point x="96" y="0" type="line"/>
      <point x="85" y="0" type="line"/>
    </contour>
    <contour>
      <point x="408" y="700" type="line"/>
      <point x="424" y="700" type="line"/>
      <point x="109" y="372" type="line"/>
      <point x="439" y="0" type="line"/>
      <point x="422" y="0" type="line"/>
      <point x="94" y="372" type="line"/>
    </contour>
    <contour>
      <point x="351" y="-76" type="line"/>
      <point x="362" y="-81" type="line"/>
      <point x="252" y="-331" type="line"/>
      <point x="246" y="-329" type="line"/>
    </contour>
  </outline>
</glyph>
<glyph name="uni0137" format="1">
  <advance width="372"/>
  <unicode hex="0137"/>
  <outline>
    <contour>
      <point x="80" y="780" type="line"/>
      <point x="90" y="780" type="line"/>
      <point x="90" y="0" type="line"/>
      <point x="80" y="0" type="line"/>
    </contour>
    <contour>
      <point x="328" y="460" type="line"/>
      <point x="344" y="460" type="line"/>
      <point x="102" y="270" type="line"/>
      <point x="362" y="0" type="line"/>
      <point x="348" y="0" type="line"/>
      <point x="88" y="270" type="line"/>
    </contour>
    <contour>
      <point x="286" y="-76" type="line"/>
      <point x="297" y="-81" type="line"/>
      <point x="187" y="-331" type="line"/>
      <point x="181" y="-329" type="line"/>
    </contour>
  </outline>
</glyph>
<glyph name="kgreenlandic" format="1">
  <advance width="372"/>
  <unicode hex="0138"/>
  <outline>
    <contour>
      <point x="80" y="460" type="line"/>
      <point x="90" y="460" type="line"/>
      <point x="90" y="0" type="line"/>
      <point x="80" y="0" type="line"/>
    </contour>
    <contour>
      <point x="328" y="460" type="line"/>
      <point x="344" y="460" type="line"/>
      <point x="102" y="270" type="line"/>
      <point x="362" y="0" type="line"/>
      <point x="348" y="0" type="line"/>
      <point x="88" y="270" type="line"/>
    </contour>
  </outline>
</glyph>
<glyph name="Ncaron" format="1">
  <advance width="665"/>
  <unicode hex="0147"/>
  <outline>
    <contour>
      <point x="61" y="678" type="line"/>
      <point x="50" y="715" type="line"/>
      <point x="584" y="17" type="line"/>
      <point x="595" y="-15" type="line"/>
    </contour>
    <contour>
      <point x="584" y="700" type="line"/>
      <point x="595" y="700" type="line"/>
      <point x="595" y="-15" type="line"/>
      <point x="584" y="17" type="line"/>
    </contour>
    <contour>
      <point x="50" y="715" type="line"/>
      <point x="61" y="678" type="line"/>
      <point x="61" y="0" type="line"/>
      <point x="50" y="0" type="line"/>
    </contour>
    <contour>
      <point x="340" y="777" type="line"/>
      <point x="492" y="913" type="line"/>
      <point x="500" y="905" type="line"/>
      <point x="340" y="765" type="line"/>
      <point x="180" y="905" type="line"/>
      <point x="188" y="913" type="line"/>
    </contour>
  </outline>
</glyph>
<glyph name="uni0157" format="1">
  <advance width="290"/>
  <unicode hex="0157"/>
  <outline>
    <contour>
      <point x="95" y="460" type="line"/>
      <point x="95" y="0" type="line"/>
      <point x="85" y="0" type="line"/>
      <point x="85" y="460" type="line"/>
    </contour>
    <contour>
      <point x="269" y="440" type="line"/>
      <point x="252" y="452"/>
      <point x="232" y="460"/>
      <point x="212" y="460" type="curve" smooth="yes"/>
      <point x="132" y="460"/>
      <point x="95" y="376"/>
      <point x="95" y="280" type="curve"/>
      <point x="90" y="280" type="line"/>
      <point x="90" y="389"/>
      <point x="127" y="470"/>
      <point x="212" y="470" type="curve" smooth="yes"/>
      <point x="235" y="470"/>
      <point x="258" y="460"/>
      <point x="275" y="448" type="curve"/>
    </contour>
    <contour>
      <point x="97" y="-60" type="line"/>
      <point x="108" y="-65" type="line"/>
      <point x="-2" y="-315" type="line"/>
      <point x="-8" y="-313" type="line"/>
    </contour>
  </outline>
</glyph>
<glyph name="Scedilla" format="1">
  <advance width="488"/>
  <unicode hex="015E"/>
  <outline>
    <contour>
      <point x="50" y="197" type="line"/>
      <point x="77" y="109"/>
      <point x="134" y="3"/>
      <point x="255" y="3" type="curve" smooth="yes"/>
      <point x="385" y="3"/>
      <point x="432" y="77"/>
      <point x="432" y="175" type="curve" smooth="yes"/>
      <point x="432" y="278"/>
      <point x="343" y="331"/>
      <point x="267" y="359" type="curve" smooth="yes"/>
      <point x="187" y="388"/>
      <point x="80" y="442"/>
      <point x="80" y="550" type="curve" smooth="yes"/>
      <point x="80" y="646"/>
      <point x="159" y="708"/>
      <point x="253" y="708" type="curve" smooth="yes"/>
      <point x="366" y="708"/>
      <point x="421" y="621"/>
      <point x="439" y="550" type="curve"/>
      <point x="429" y="548" type="line"/>
      <point x="410" y="615"/>
      <point x="359" y="697"/>
      <point x="253" y="697" type="curve" smooth="yes"/>
      <point x="163" y="697"/>
      <point x="91" y="636"/>
      <point x="91" y="550" type="curve" smooth="yes"/>
      <point x="91" y="450"/>
      <point x="188" y="399"/>
      <point x="273" y="368" type="curve" smooth="yes"/>
      <point x="356" y="338"/>
      <point x="443" y="283"/>
      <point x="443" y="175" type="curve" smooth="yes"/>
      <point x="443" y="76"/>
      <point x="394" y="-8"/>
      <point x="255" y="-8" type="curve" smooth="yes"/>
      <point x="130" y="-8"/>
      <point x="69" y="96"/>
      <point x="40" y="193" type="curve"/>
    </contour>
    <contour>
      <point x="249" y="-1" type="line"/>
      <point x="261" y="-1" type="line"/>
      <point x="205" y="-77" type="line"/>
      <point x="194" y="-89" type="line"/>
    </contour>
    <contour>
      <point x="348" y="-127" type="curve"/>
      <point x="338" y="-127" type="line"/>
      <point x="338" y="-83"/>
      <point x="304" y="-63"/>
      <point x="275" y="-63" type="curve" smooth="yes"/>
      <point x="245" y="-63"/>
      <point x="217" y="-73"/>
      <point x="194" y="-89" type="curve"/>
      <point x="205" y="-77" type="line"/>
      <point x="231" y="-61"/>
      <point x="242" y="-53"/>
      <point x="275" y="-53" type="curve" smooth="yes"/>
      <point x="308" y="-53"/>
      <point x="348" y="-78"/>
    </contour>
    <contour>
      <point x="348" y="-127" type="line"/>
      <point x="348" y="-188"/>
      <point x="296" y="-221"/>
      <point x="241" y="-221" type="curve" smooth="yes"/>
      <point x="204" y="-221"/>
      <point x="180" y="-211"/>
      <point x="152" y="-183" type="curve"/>
      <point x="159" y="-177" type="line"/>
      <point x="187" y="-201"/>
      <point x="208" y="-211"/>
      <point x="241" y="-211" type="curve" smooth="yes"/>
      <point x="288" y="-211"/>
      <point x="338" y="-183"/>
      <point x="338" y="-127" type="curve"/>
    </contour>
  </outline>
</glyph>
<glyph name="Zacute" format="1">
  <advance width="535"/>
  <unicode hex="0179"/>
  <outline>
    <contour>
      <point x="40" y="689" type="line"/>
      <point x="40" y="700" type="line"/>
      <point x="520" y="700" type="line"/>
      <point x="42" y="11" type="line"/>
      <point x="510" y="11" type="line"/>
      <point x="510" y="0" type="line"/>
      <point x="20" y="0" type="line"/>
      <point x="498" y="689" type="line"/>
    </contour>
    <contour>
      <point x="425.5" y="925" type="line"/>
      <point x="252.5" y="768" type="line"/>
      <point x="247.5" y="773" type="line"/>
      <point x="417.5" y="933" type="line"/>
    </contour>
  </outline>
</glyph>
<glyph name="zacute" format="1">
  <advance width="430"/>
  <unicode hex="017A"/>
  <outline>
    <contour>
      <point x="379" y="450" type="line"/>
      <point x="40" y="450" type="line"/>
      <point x="40" y="460" type="line"/>
      <point x="400" y="460" type="line"/>
      <point x="41" y="10" type="line"/>
      <point x="410" y="10" type="line"/>
      <point x="410" y="0" type="line"/>
      <point x="20" y="0" type="line"/>
    </contour>
    <contour>
      <point x="365.5" y="687" type="line"/>
      <point x="192.5" y="530" type="line"/>
      <point x="187.5" y="535" type="line"/>
      <point x="357.5" y="695" type="line"/>
    </contour>
  </outline>
</glyph>
<glyph name="zcaron" format="1">
  <advance width="430"/>
  <unicode hex="017E"/>
  <outline>
    <contour>
      <point x="35" y="10" type="line"/>
      <point x="410" y="10" type="line"/>
      <point x="410" y="0" type="line"/>
      <point x="20" y="0" type="line"/>
    </contour>
    <contour>
      <point x="40" y="460" type="line"/>
      <point x="400" y="460" type="line"/>
      <point x="385" y="450" type="line"/>
      <point x="40" y="450" type="line"/>
    </contour>
    <contour>
      <point x="387" y="460" type="line"/>
      <point x="400" y="460" type="line"/>
      <point x="33" y="0" type="line"/>
      <point x="20" y="0" type="line"/>
    </contour>
    <contour>
      <point x="245" y="542" type="line"/>
      <point x="397" y="678" type="line"/>
      <point x="405" y="670" type="line"/>
      <point x="245" y="530" type="line"/>
      <point x="85" y="670" type="line"/>
      <point x="93" y="678" type="line"/>
    </contour>
  </outline>
</glyph>
<glyph name="circumflex" format="1">
  <advance width="480"/>
  <unicode hex="02C6"/>
  <outline>
    <contour>
      <point x="240" y="718" type="line"/>
      <point x="87" y="583" type="line"/>
      <point x="80" y="590" type="line"/>
      <point x="240" y="730" type="line"/>
      <point x="400" y="590" type="line"/>
      <point x="393" y="583" type="line"/>
    </contour>
  </outline>
</glyph>
<glyph name="ellipsis" format="1">
  <advance width="812"/>
  <unicode hex="2026"/>
  <outline>
    <contour>
      <point x="120" y="1" type="curve" smooth="yes"/>
      <point x="120" y="8"/>
      <point x="125" y="12"/>
      <point x="131" y="12" type="curve" smooth="yes"/>
      <point x="137" y="12"/>
      <point x="142" y="8"/>
      <point x="142" y="1" type="curve" smooth="yes"/>
      <point x="142" y="-6"/>
      <point x="137" y="-10"/>
      <point x="131" y="-10" type="curve" smooth="yes"/>
      <point x="125" y="-10"/>
      <point x="120" y="-6"/>
    </contour>
    <contour>
      <point x="395" y="1" type="curve" smooth="yes"/>
      <point x="395" y="8"/>
      <point x="400" y="12"/>
      <point x="406" y="12" type="curve" smooth="yes"/>
      <point x="412" y="12"/>
      <point x="417" y="8"/>
      <point x="417" y="1" type="curve" smooth="yes"/>
      <point x="417" y="-6"/>
      <point x="412" y="-10"/>
      <point x="406" y="-10" type="curve" smooth="yes"/>
      <point x="400" y="-10"/>
      <point x="395" y="-6"/>
    </contour>
    <contour>
      <point x="670" y="1" type="curve" smooth="yes"/>
      <point x="670" y="8"/>
      <point x="675" y="12"/>
      <point x="681" y="12" type="curve" smooth="yes"/>
      <point x="687" y="12"/>
      <point x="692" y="8"/>
      <point x="692" y="1" type="curve" smooth="yes"/>
      <point x="692" y="-6"/>
      <point x="687" y="-10"/>
      <point x="681" y="-10" type="curve" smooth="yes"/>
      <point x="675" y="-10"/>
      <point x="670" y="-6"/>
    </contour>
  </outline>
</glyph>
<glyph name="uni2084" format="1">
  <advance width="371"/>
  <unicode hex="2084"/>
  <outline>
    <contour>
      <point x="35" y="84" type="line"/>
      <point x="41" y="90" type="line"/>
      <point x="261" y="90" type="line" smooth="yes"/>
      <point x="263" y="90" type="line" smooth="yes"/>
      <point x="331" y="90" type="line"/>
      <point x="331" y="84" type="line"/>
    </contour>
    <contour>
      <point x="42" y="84" type="line"/>
      <point x="35" y="84" type="line"/>
      <point x="265" y="420" type="line"/>
      <point x="266" y="420" type="line"/>
      <point x="266" y="0" type="line"/>
      <point x="259" y="0" type="line"/>
      <point x="259" y="85" type="line" smooth="yes"/>
      <point x="259" y="88" type="line" smooth="yes"/>
      <point x="259" y="400" type="line"/>
    </contour>
  </outline>
</glyph>
<glyph name="uni2151" format="1">
  <advance width="784"/>
  <unicode hex="2151"/>
  <outline>
    <contour>
      <point x="621" y="700" type="line"/>
      <point x="633" y="700" type="line"/>
      <point x="60" y="0" type="line"/>
      <point x="48" y="0" type="line"/>
    </contour>
    <contour>
      <point x="21" y="666" type="line"/>
      <point x="21" y="673" type="line"/>
      <point x="129" y="697" type="line"/>
      <point x="129" y="274" type="line"/>
      <point x="123" y="274" type="line"/>
      <point x="123" y="689" type="line"/>
    </contour>
    <contour>
      <point x="724" y="290" type="curve" smooth="yes"/>
      <point x="724" y="366"/>
      <point x="674" y="422"/>
      <point x="599" y="422" type="curve" smooth="yes"/>
      <point x="524" y="422"/>
      <point x="474" y="366"/>
      <point x="474" y="290" type="curve" smooth="yes"/>
      <point x="474" y="220"/>
      <point x="530" y="166"/>
      <point x="593" y="166" type="curve" smooth="yes"/>
      <point x="677" y="166"/>
      <point x="724" y="226"/>
    </contour>
    <contour>
      <point x="562" y="2" type="line"/>
      <point x="555" y="2" type="line"/>
      <point x="700" y="209" type="line"/>
      <point x="700" y="209" type="line"/>
      <point x="675" y="178"/>
      <point x="638" y="160"/>
      <point x="593" y="160" type="curve" smooth="yes"/>
      <point x="525" y="160"/>
      <point x="468" y="219"/>
      <point x="468" y="290" type="curve" smooth="yes"/>
      <point x="468" y="370"/>
      <point x="518" y="428"/>
      <point x="599" y="428" type="curve" smooth="yes"/>
      <point x="680" y="428"/>
      <point x="730" y="370"/>
      <point x="730" y="290" type="curve" smooth="yes"/>
      <point x="730" y="256"/>
      <point x="712" y="217"/>
      <point x="696" y="195" type="curve" smooth="yes"/>
    </contour>
  </outline>
</glyph>
<glyph name="uni2152" format="1">
  <advance width="1080"/>
  <unicode hex="2152"/>
  <outline>
    <contour>
      <point x="621" y="700" type="line"/>
      <point x="633" y="700" type="line"/>
      <point x="60" y="0" type="line"/>
      <point x="48" y="0" type="line"/>
    </contour>
    <contour>
      <point x="21" y="666" type="line"/>
      <point x="21" y="673" type="line"/>
      <point x="129" y="697" type="line"/>
      <point x="129" y="274" type="line"/>
      <point x="123" y="274" type="line"/>
      <point x="123" y="689" type="line"/>
    </contour>
    <contour>
      <point x="433" y="393" type="line"/>
      <point x="433" y="400" type="line"/>
      <point x="541" y="424" type="line"/>
      <point x="541" y="1" type="line"/>
      <point x="535" y="1" type="line"/>
      <point x="535" y="416" type="line"/>
    </contour>
    <contour>
      <point x="750" y="210" type="curve" smooth="yes"/>
      <point x="750" y="98"/>
      <point x="796" y="0"/>
      <point x="875" y="0" type="curve" smooth="yes"/>
      <point x="954" y="0"/>
      <point x="1000" y="98"/>
      <point x="1000" y="210" type="curve" smooth="yes"/>
      <point x="1000" y="322"/>
      <point x="954" y="420"/>
      <point x="875" y="420" type="curve" smooth="yes"/>
      <point x="796" y="420"/>
      <point x="750" y="322"/>
    </contour>
    <contour>
      <point x="743" y="210" type="curve" smooth="yes"/>
      <point x="743" y="329"/>
      <point x="792" y="426"/>
      <point x="875" y="426" type="curve" smooth="yes"/>
      <point x="958" y="426"/>
      <point x="1007" y="329"/>
      <point x="1007" y="210" type="curve" smooth="yes"/>
      <point x="1007" y="91"/>
      <point x="958" y="-6"/>
      <point x="875" y="-6" type="curve" smooth="yes"/>
      <point x="792" y="-6"/>
      <point x="743" y="91"/>
    </contour>
  </outline>
</glyph>
